
Genre:Action | Sci-Fi
Language:English
IMDb:http://www.imdb.com/title/tt1846444/
Source:720p.BluRay.x264-BRMP Thanks!

Format                           : MPEG-4
Format profile                   : Base Media
Codec ID                         : isom
File size                        : 1.23 GiB
Duration                         : 1h 31mn
Overall bit rate                 : 1 930 Kbps

Video
ID                               : 1
Format                           : AVC
Format/Info                      : Advanced Video Codec
Format profile                   : High@L4.1
Format settings, CABAC           : Yes
Format settings, ReFrames        : 3 frames
Codec ID                         : avc1
Codec ID/Info                    : Advanced Video Coding
Duration                         : 1h 31mn
Bit rate mode                    : Variable
Bit rate                         : 1 500 Kbps
Maximum bit rate                 : 6 975 Kbps
Width                            : 720 pixels
Height                           : 400 pixels
Display aspect ratio             : 16:9
Frame rate mode                  : Constant
Frame rate                       : 23.976 fps
Color space                      : YUV
Chroma subsampling               : 4:2:0
Bit depth                        : 8 bits
Scan type                        : Progressive
Bits/(Pixel*Frame)               : 0.217
Stream size                      : 971 MiB (77%)
Writing library                  : x264

Audio
ID                               : 2
Format                           : AAC
Format/Info                      : Advanced Audio Codec
Format version                   : Version 4
Format profile                   : LC
Format settings, SBR             : No
Codec ID                         : 40
Duration                         : 1h 31mn
Bit rate mode                    : Variable
Bit rate                         : 444 Kbps
Maximum bit rate                 : 485 Kbps
Channel(s)                       : 6 channels
Channel positions                : Front: L C R, Side: L R, LFE
Sampling rate                    : 48.0 KHz
Stream size                      : 291 MiB (23%)

 
http://leetleech.org/images/62052811919404636618.png
 
http://leetleech.org/images/53964341411007105697.png
 
http://leetleech.org/images/91061081246528389943.png